<svg xmlns="http://www.w3.org/2000/svg" xmlns:xlink="http://www.w3.org/1999/xlink" version="1.1" id="Layer_1" x="0px" y="0px" width="100px" height="99.775px" viewBox="0 0 100 99.775" enable-background="new 0 0 100 99.775" xml:space="preserve">
<path d="M51.148,69.306c-12.576,0-21.026-7.282-21.026-18.12c0-12.988,9.405-21.028,18.119-21.028c7.307,0,12.835,1.86,16.432,5.529  c4.801,4.896,4.677,11.242,4.608,14.65c-0.006,0.309-0.012,0.592-0.012,0.849C69.27,57.689,63.215,69.306,51.148,69.306z   M48.241,40.209c-2.726,0-8.068,3.314-8.068,10.977c0,3.013,1.426,8.069,10.976,8.069c5.555,0,8.07-6.189,8.07-8.069  c0-0.316,0.007-0.667,0.014-1.046c0.046-2.336,0.109-5.534-1.735-7.416C55.884,41.078,52.683,40.209,48.241,40.209z"/>
<path d="M38.604,43.57c-1.339,0-2.674-0.531-3.663-1.584c-0.103-0.109-10.31-10.958-15.457-15.574  C15.571,22.904,6.41,14.688,1.133,8.226c-1.755-2.15-1.436-5.316,0.715-7.071c2.147-1.753,5.315-1.436,7.071,0.714  c4.782,5.858,13.859,13.997,17.274,17.061c5.468,4.903,15.641,15.717,16.071,16.175c1.9,2.022,1.802,5.202-0.221,7.104  C41.074,43.119,39.837,43.57,38.604,43.57z"/>
<path d="M94.754,99.754c-1.457,0-2.903-0.63-3.896-1.847c-4.786-5.862-13.86-13.997-17.276-17.061  c-5.468-4.903-15.285-15.344-15.701-15.785c-1.9-2.023-1.801-5.203,0.222-7.104c2.024-1.902,5.202-1.802,7.104,0.221  c0.099,0.105,9.938,10.569,15.085,15.185c3.911,3.507,13.071,11.72,18.353,18.187c1.755,2.15,1.436,5.315-0.715,7.071  C96.996,99.383,95.871,99.754,94.754,99.754z"/>
<path fill="none" stroke="#000000" stroke-width="8" stroke-linecap="round" stroke-linejoin="round" stroke-miterlimit="10" d="  M4.815,33.817"/>
<path d="M5.028,41.146c-1.429,0-2.848-0.607-3.843-1.784c-1.79-2.121-1.522-5.291,0.598-7.081c0.059-0.05,5.863-4.963,10.783-10.134  c2.423-2.546,5.042-5.13,7.575-7.628c4.26-4.202,8.665-8.546,12.085-12.676c1.771-2.138,4.938-2.436,7.075-0.667  c2.139,1.77,2.437,4.938,0.667,7.076c-3.743,4.521-8.332,9.047-12.77,13.423c-2.477,2.443-5.039,4.969-7.352,7.399  C14.539,34.654,8.521,39.746,8.267,39.96C7.323,40.757,6.173,41.146,5.028,41.146z"/>
<path d="M62.706,98.749c-1.429,0-2.849-0.606-3.843-1.784c-1.79-2.12-1.522-5.291,0.599-7.082  c0.058-0.048,5.863-4.962,10.781-10.133c2.424-2.546,5.042-5.129,7.576-7.627c4.26-4.202,8.665-8.547,12.084-12.677  c1.771-2.137,4.938-2.438,7.076-0.667c2.138,1.77,2.437,4.938,0.667,7.076c-3.743,4.521-8.333,9.047-12.771,13.424  c-2.477,2.442-5.038,4.969-7.351,7.398c-5.309,5.58-11.328,10.673-11.581,10.887C65.001,98.36,63.851,98.749,62.706,98.749z"/>
<path d="M61.478,43.627c-1.339,0-2.674-0.53-3.663-1.584c-1.9-2.021-1.803-5.203,0.221-7.104  c0.108-0.102,10.96-10.309,15.575-15.456C77.12,15.57,85.34,6.404,91.796,1.132c2.148-1.753,5.316-1.436,7.071,0.714  c1.755,2.15,1.436,5.316-0.715,7.071c-5.851,4.778-13.994,13.858-17.059,17.276c-4.903,5.466-15.718,15.64-16.176,16.069  C63.947,43.176,62.711,43.627,61.478,43.627z"/>
<path d="M5.296,99.775c-1.457,0-2.902-0.63-3.896-1.847c-1.755-2.15-1.436-5.315,0.715-7.071  c5.858-4.784,13.998-13.859,17.062-17.276c4.902-5.467,15.344-15.284,15.785-15.7c2.022-1.9,5.203-1.802,7.104,0.222  c1.9,2.022,1.801,5.203-0.222,7.104c-0.105,0.098-10.569,9.938-15.185,15.085c-3.51,3.911-11.725,13.073-18.188,18.351  C7.538,99.404,6.414,99.775,5.296,99.775z"/>
<path d="M94.972,41.123c-1.129,0-2.265-0.378-3.202-1.154c-4.52-3.742-9.045-8.33-13.421-12.768  c-2.443-2.479-4.971-5.04-7.401-7.354C65.368,14.539,60.275,8.52,60.062,8.266c-1.789-2.121-1.521-5.291,0.6-7.081  c2.122-1.792,5.292-1.521,7.082,0.598c0.048,0.058,4.962,5.864,10.132,10.783c2.547,2.424,5.131,5.043,7.63,7.576  c4.201,4.261,8.546,8.665,12.674,12.084c2.138,1.771,2.437,4.938,0.667,7.076C97.852,40.503,96.417,41.123,94.972,41.123z"/>
<path d="M37.368,98.801c-1.128,0-2.264-0.378-3.201-1.154c-4.522-3.742-9.048-8.332-13.425-12.771  c-2.442-2.477-4.968-5.037-7.397-7.35C7.764,72.218,2.671,66.199,2.457,65.944c-1.789-2.12-1.521-5.29,0.599-7.08  c2.121-1.791,5.292-1.521,7.082,0.598c0.049,0.058,4.963,5.862,10.135,10.782c2.546,2.423,5.128,5.042,7.626,7.574  c4.202,4.261,8.547,8.666,12.678,12.086c2.138,1.77,2.437,4.938,0.666,7.076C40.249,98.181,38.814,98.801,37.368,98.801z"/>
</svg>